<?xml version="1.0" standalone="no"?>
<!DOCTYPE svg PUBLIC "-//W3C//DTD SVG 20010904//EN"
 "http://www.w3.org/TR/2001/REC-SVG-20010904/DTD/svg10.dtd">
<svg version="1.0" xmlns="http://www.w3.org/2000/svg"
 width="300.000000pt" height="300.000000pt" viewBox="0 0 300.000000 300.000000"
 preserveAspectRatio="xMidYMid meet">
<metadata>
Created by potrace 1.11, written by Peter Selinger 2001-2013
</metadata>
<g transform="translate(0.000000,300.000000) scale(0.100000,-0.100000)"
fill="#000000" stroke="none">
<path d="M1280 2983 c-590 -87 -1082 -528 -1230 -1102 -37 -143 -49 -246 -45
-411 4 -212 35 -362 113 -550 161 -391 500 -706 901 -840 161 -54 280 -73 461
-74 91 -1 188 2 217 6 571 83 1035 464 1222 1004 51 146 73 279 76 454 5 277
-41 476 -167 721 -213 416 -611 706 -1083 789 -102 18 -353 20 -465 3z"/>
</g>
</svg>
